<?xml version="1.0"?>
<svg xmlns:rdf="http://www.w3.org/1999/02/22-rdf-syntax-ns#" xmlns="http://www.w3.org/2000/svg" xmlns:cc="http://web.resource.org/cc/" xmlns:xlink="http://www.w3.org/1999/xlink" xmlns:dc="http://purl.org/dc/elements/1.1/" id="svg2" viewBox="0 0 709.45 681.59" version="1.0">
 <defs id="defs3">
  <radialGradient id="radialGradient2989" gradientUnits="userSpaceOnUse" cy="598.08" cx="425.71" gradientTransform="matrix(1 -.28573 .21587 .74708 -129.1 272.91)" r="202.86">
   <stop id="stop2788" stop-color="#ac8700" offset="0"/>
   <stop id="stop2790" stop-color="#ac8700" stop-opacity="0" offset="1"/>
  </radialGradient>
  <linearGradient id="linearGradient2991" x1="194.39" gradientUnits="userSpaceOnUse" y1="556.86" gradientTransform="matrix(.96820 .049968 -.052580 1.0188 24.104 -5.5058)" x2="145.82" y2="276.86">
   <stop id="stop2877" offset="0"/>
   <stop id="stop2879" stop-opacity="0" offset="1"/>
  </linearGradient>
  <radialGradient id="radialGradient2993" gradientUnits="userSpaceOnUse" cy="124.77" cx="89.387" gradientTransform="matrix(1.8664 .026336 -.013444 .84456 -75.744 16.328)" r="30.827">
   <stop id="stop2891" stop-color="#ae594b" offset="0"/>
   <stop id="stop2893" stop-color="#ae594b" stop-opacity="0" offset="1"/>
  </radialGradient>
  <radialGradient id="radialGradient2995" gradientUnits="userSpaceOnUse" cy="-84.781" cx="-262.86" gradientTransform="matrix(.98238 -.15290 .16596 5.5649 9.4393 346.83)" r="97.143">
   <stop id="stop2901" stop-color="#5f5f5f" offset="0"/>
   <stop id="stop2903" stop-color="#5f5f5f" stop-opacity="0" offset="1"/>
  </radialGradient>
 </defs>
 <g id="layer1" transform="translate(-12.585 -167.75)">
  <g id="g2947" transform="matrix(.30773 0 0 .29819 369.92 347.87)" fill-rule="evenodd">
   <path id="path2794" stroke-linejoin="round" d="m-165.71-84.781a97.143 434.29 0 1 1 -194.29 0 97.143 434.29 0 1 1 194.29 0z" transform="matrix(.97738 -.21147 .21147 .97738 71.984 -117.5)" stroke="#000" stroke-linecap="round" stroke-width="2.8" fill="#c6c6c6"/>
   <path id="path2796" stroke-linejoin="round" d="m-165.71-84.781a97.143 434.29 0 1 1 -194.29 0 97.143 434.29 0 1 1 194.29 0z" transform="matrix(.99470 .10285 -.10285 .99470 289.89 -59.13)" stroke="#000" stroke-linecap="round" stroke-width="2.8" fill="#c5c5c1"/>
   <path id="path2798" stroke-linejoin="round" d="m-165.71-84.781a97.143 434.29 0 1 1 -194.29 0 97.143 434.29 0 1 1 194.29 0z" transform="matrix(.95064 .46974 -.34031 .88376 469.6 87.906)" stroke="#000" stroke-linecap="round" stroke-width="2.8" fill="#c6c6c6"/>
   <path id="path2812" stroke-linejoin="round" d="m-165.71-84.781a97.143 434.29 0 1 1 -194.29 0 97.143 434.29 0 1 1 194.29 0z" transform="matrix(.77854 .71989 -.57682 .75109 604.31 259.55)" stroke="#000" stroke-linecap="round" stroke-width="2.8" fill="#c6c6c6"/>
   <path id="path2814" stroke-linejoin="round" d="m-165.71-84.781a97.143 434.29 0 1 1 -194.29 0 97.143 434.29 0 1 1 194.29 0z" transform="matrix(.091547 .98695 -.97378 .42522 618.65 496.41)" stroke="#000" stroke-linecap="round" stroke-width="2.8" fill="#c6c6c6"/>
   <path id="path2816" stroke-linejoin="round" d="m-165.71-84.781a97.143 434.29 0 1 1 -194.29 0 97.143 434.29 0 1 1 194.29 0z" transform="matrix(.77071 .89308 -.95988 .18522 829.78 671.39)" stroke="#000" stroke-linecap="round" stroke-width="2.8" fill="#c6c6c6"/>
   <path id="path2818" stroke-linejoin="round" d="m-165.71-84.781a97.143 434.29 0 1 1 -194.29 0 97.143 434.29 0 1 1 194.29 0z" transform="matrix(.60718 1.0114 -.97741 .018872 791.02 902.67)" stroke="#000" stroke-linecap="round" stroke-width="2.8" fill="#c6c6c6"/>
   <path id="path2820" stroke-linejoin="round" d="m-165.71-84.781a97.143 434.29 0 1 1 -194.29 0 97.143 434.29 0 1 1 194.29 0z" transform="matrix(.095568 1.1617 -.88625 -.30927 607.13 1208.6)" stroke="#000" stroke-linecap="round" stroke-width="2.8" fill="#c6c6c6"/>
   <path id="path2822" stroke-linejoin="round" d="m-165.71-84.781a97.143 434.29 0 1 1 -194.29 0 97.143 434.29 0 1 1 194.29 0z" transform="matrix(-.66509 .95725 -.48721 -.80232 138.16 1430.2)" stroke="#000" stroke-linecap="round" stroke-width="2.8" fill="#c6c6c6"/>
   <path id="path2825" stroke-linejoin="round" d="m-165.71-84.781a97.143 434.29 0 1 1 -194.29 0 97.143 434.29 0 1 1 194.29 0z" transform="matrix(-.84920 .64716 -.19371 -.84329 -113.93 1399.6)" stroke="#000" stroke-linecap="round" stroke-width="2.8" fill="#c6c6c6"/>
   <path id="path2827" stroke-linejoin="round" d="m-165.71-84.781a97.143 434.29 0 1 1 -194.29 0 97.143 434.29 0 1 1 194.29 0z" transform="matrix(-1.0007 .37219 .059942 -.86317 -355.11 1328.4)" stroke="#000" stroke-linecap="round" stroke-width="2.8" fill="#c6c6c6"/>
   <path id="path2829" stroke-linejoin="round" d="m-165.71-84.781a97.143 434.29 0 1 1 -194.29 0 97.143 434.29 0 1 1 194.29 0z" transform="matrix(-.94474 -.49742 .68314 -.53102 -733.27 890.88)" stroke="#000" stroke-linecap="round" stroke-width="2.8" fill="#c6c6c6"/>
   <path id="path2831" stroke-linejoin="round" d="m-165.71-84.781a97.143 434.29 0 1 1 -194.29 0 97.143 434.29 0 1 1 194.29 0z" transform="matrix(-.68385 -.89951 .87283 -.21953 -785.76 600.16)" stroke="#000" stroke-linecap="round" stroke-width="2.8" fill="#c6c6c6"/>
   <path id="path2833" stroke-linejoin="round" d="m-165.71-84.781a97.143 434.29 0 1 1 -194.29 0 97.143 434.29 0 1 1 194.29 0z" transform="matrix(-.58221 -1.0276 .91242 -.11811 -815.68 383.67)" stroke="#000" stroke-linecap="round" stroke-width="2.8" fill="#c6c6c6"/>
   <path id="path2835" stroke-linejoin="round" d="m-165.71-84.781a97.143 434.29 0 1 1 -194.29 0 97.143 434.29 0 1 1 194.29 0z" transform="matrix(-.31087 -1.2225 .96393 .13250 -739.99 122.26)" stroke="#000" stroke-linecap="round" stroke-width="2.8" fill="#c6c6c6"/>
   <path id="path2837" stroke-linejoin="round" d="m-165.71-84.781a97.143 434.29 0 1 1 -194.29 0 97.143 434.29 0 1 1 194.29 0z" transform="matrix(.44496 -1.1803 .71449 .66047 -413.89 -127.6)" stroke="#000" stroke-linecap="round" stroke-width="2.8" fill="#c6c6c6"/>
   <path id="path1881" stroke-linejoin="round" d="m794.29 589.51a351.43 354.29 0 1 1 -702.86 0 351.43 354.29 0 1 1 702.86 0z" transform="translate(-451.43 5.7143)" stroke="#63c737" stroke-linecap="round" stroke-width="2.8" fill="#d1b900"/>
   <path id="path2776" transform="matrix(1.4507 0 0 1.4932 -660.44 -243.51)" fill="url(#radialGradient2989)" d="m628.57 598.08a202.86 208.57 0 1 1 -405.71 0 202.86 208.57 0 1 1 405.71 0z"/>
   <path id="path2853" stroke="#000" stroke-width="1px" fill="#943201" d="m107.14 235.22l48.57-2.86h40l10 2.86 1.43 5.71-5.71 14.29-15.72 17.14-12.85 15.72-11.43 11.43 35.71 12.85 21.43 2.86 25.72 7.14h10l-32.86-12.85h-22.86l-21.43-10 20-28.58 14.29-18.57 4.28-20-10-8.57-34.28-8.57h-90.001l-7.143 12.86-27.143-5.72-21.429-1.43h-34.285l-15.715 8.58-2.857 21.42-1.428 37.15 8.571 31.43-24.286 15.71-35.714 12.86-20 4.28 20 2.86h11.429l14.285-8.57 4.286 4.28 31.429-20 8.571-10-2.857-12.85-5.714-30 1.428-31.43 5.714-5.72h57.143l25.715 4.29 35.711-10z"/>
   <path id="path2851" stroke="#000" stroke-width="1px" fill="#811f00" d="m124.29 298.08l44.28-8.57 32.86-11.43h35.71l1.43 12.85-10 35.72-45.71 70 20 21.43 18.57 15.71 21.43 8.57h21.43l1.42 2.86-22.85 2.86-1.43 7.14-15.72-12.86-1.42 2.86-14.29-14.29-5.71 4.29-11.43-17.14-24.29-18.57 18.57-20 15.72-17.15 12.85-24.28 11.43-27.15 1.43-18.57-20 8.57-45.71 10-71.431 14.29-24.286-4.29-18.572-15.71-17.142-17.14-8.572-10-1.428 21.43 7.142 27.14 5.715 21.43 11.428 24.28-2.857 15.72-15.714 20-8.572 17.14-1.428 14.29-5.714-2.86-2.8576 17.14-2.8571-4.28-4.2857 18.57-7.1429-7.15-12.857 7.15 11.428-12.86 12.857-24.29 12.857-22.85 20-25.72-4.285-10-10-20-5.715-20-4.285-37.14v-25.71l4.285-10 8.572-1.43 14.286 14.28 42.857 32.86 40.004-7.14z"/>
   <path id="path2855" stroke="#000" stroke-width="1px" fill="#92340b" d="m77.143 160.93h-34.286l-25.714-12.85-40-14.29-15.714-1.43h-8.572l-18.571-7.14 4.285-10 17.143 10h11.429l12.857-10 42.857 17.14 37.143 15.72 60-8.57 10-8.58 22.86-15.71h-54.289l17.139-8.57 52.86 2.86 2.86 7.14-5.72 10-25.71 18.57-44.286 22.86-18.571-7.15z"/>
   <path id="path2857" stroke="#000" stroke-width="1px" fill="#83390c" d="m97.143 155.22l27.147-2.86 15.71 2.86 7.14 8.57 4.29 14.29 15.71 77.14 20 115.71 8.57 72.86-0.71 25.72-5 15.71-10.71 12.14-12.15 5-35.71 2.86-22.14-4.29-9.29-11.42-10-25.72-20-95.71-12.857-98.57-11.429-84.29v-15.71l7.143-7.15 17.143-5.71 27.143-1.43z"/>
   <path id="path2871" stroke-linejoin="round" d="m58.126 49.769c-1.173-2.089-2.344-4.217-3.514-6.333-1.738-3.219-3.474-6.439-5.218-9.63-1.464-2.553-2.892-5.278-4.328-7.961-1.044-1.971-2.096-3.904-3.15-5.836-1.042-1.945-2.086-3.884-3.129-5.826-1.287-2.331-2.555-4.7431-3.826-7.1409-1.907-3.6276-3.863-6.9629-5.81-10.307-1.645-2.8977-3.301-5.5342-4.948-8.1741-1.37-2.173-2.737-4.318-4.106-6.476-1.743-2.899-3.479-5.669-5.217-8.431-1.736-2.829-3.469-5.553-5.2014-8.323-1.7403-2.708-3.4838-5.466-5.224-8.174-1.5955-2.494-3.1913-5.008-4.7853-7.481-1.2591-1.975-2.4973-3.754-3.7366-5.563-1.3815-2.191-2.7225-4.148-4.0661-6.037-1.2843-1.763-2.4906-3.181-3.6866-4.557-1.244-1.453-2.484-2.892-3.744-4.405-1.24-1.472-2.428-2.748-3.663-4.198-0.837-0.93-1.76-2.28-2.661-3.525-1.013-1.501-2.048-3.153-3.073-4.763-1.297-2.076-2.585-4.01-3.874-5.984-1.336-2.04-2.661-4.025-3.982-5.942-1.37-1.965-2.615-3.397-3.861-4.812-1.366-1.6-2.675-3-3.963-4.32-1.453-1.55-2.893-3.06-4.337-4.58-1.516-1.56-2.955-2.88-4.362-4.09-1.484-1.24-2.9-2.28-4.299-3.27-1.17-0.82-2.463-2.05-3.802-3.39-1.678-1.69-3.383-3.48-5.117-5.37-1.634-1.82-3.224-3.49-4.81-5.13-1.003-1.04-2.027-2.14-3.051-3.25-1.007-1.09-1.858-1.72-2.681-2.25-1.032-0.72-2.152-1.69-3.227-2.53-0.465-0.36-0.947-0.77-1.42-1.15l-0.361-6.2c0.467 0.39 0.939 0.8 1.398 1.17 1.091 0.89 2.185 1.79 3.186 2.41 0.885 0.66 1.784 1.34 2.827 2.49 1.011 1.09 2.024 2.19 3.034 3.28 1.608 1.73 3.208 3.43 4.833 5.21 1.719 1.88 3.421 3.69 5.074 5.33 1.279 1.18 2.539 2.31 3.726 3.21 1.416 1.04 2.842 2.12 4.325 3.37 1.424 1.21 2.874 2.52 4.426 4.14 1.446 1.53 2.901 3.08 4.33 4.54 1.302 1.36 2.629 2.81 3.999 4.41 1.289 1.45 2.569 2.88 4.007 5.01 1.334 1.935 2.668 3.908 4.02 6.005 1.293 1.975 2.581 3.884 3.881 5.957 1.009 1.582 2.025 3.182 3.022 4.642 0.865 1.199 1.744 2.462 2.55 3.366 1.229 1.449 2.455 2.888 3.667 4.27 1.243 1.46 2.485 2.916 3.72 4.345 1.229 1.427 2.4692 2.899 3.7927 4.747 1.3528 1.92 2.7098 3.874 4.0941 6.034 1.2596 1.853 2.5191 3.691 3.7977 5.723 1.5957 2.501 3.19 4.996 4.7824 7.455 1.7415 2.755 3.4857 5.552 5.2257 8.28 1.7364 2.689 3.4784 5.424 5.2244 8.281 1.737 2.795 3.473 5.61 5.208 8.378 1.372 2.176 2.742 4.325 4.115 6.517 1.67 2.696 3.348 5.382 5.012 8.3496 1.962 3.4014 3.937 6.7691 5.88 10.319 1.262 2.3868 2.518 4.8114 3.803 7.1005 1.051 1.9299 2.099 3.8679 3.144 5.8209 1.051 1.931 2.101 3.867 3.14 5.847 1.433 2.7 2.852 5.462 4.318 8.03 1.739 3.179 3.475 6.371 5.207 9.587 1.234 2.203 2.475 4.505 3.722 6.474l-0.257 5.311z" stroke="#000" stroke-linecap="round" stroke-width="1.4575"/>
   <path id="path2869" stroke-linejoin="round" d="m71.308 61.847c0.056-0.907 0.046-1.817 0.061-2.725-0.126-1.883 0.667-3.37 1.432-5.013 2.469-3.519 5.329-6.753 8.39-9.766 2.764-2.767 5.734-5.313 8.614-7.954 1.879-1.851 3.444-3.982 5.067-6.053 1.525-1.954 2.83-4.05 4.306-6.038 1.962-2.416 4.432-4.288 6.862-6.188 1.88-1.365 3.84-2.613 5.76-3.902 3.44-2.191 7.06-4.078 10.58-6.1357 2.73-1.5972-11.02 6.2217-8.23 4.7287 3.31-1.768 6.51-3.7176 9.78-5.5569 2.53-1.4226-5.07 2.8259-7.6 4.2389 1.77-1.245 3.6-2.398 5.42-3.5706 2.21-1.4216 4.36-2.9182 6.55-4.3701 2.46-1.5597 4.8-3.2997 7.23-4.9228 2.19-1.4012 4.33-2.8618 6.44-4.388 2.46-1.5266 4.56-3.497 6.69-5.4355 1.93-1.876 4.07-3.501 6.21-5.13 2.54-1.943 4.75-4.241 6.9-6.599 1.44-1.977 3.03-3.846 4.57-5.743 1.82-2.35 3.58-4.739 5.34-7.126 2.16-2.867 4.73-5.36 7.36-7.777 2.36-1.743 4.75-3.451 7.18-5.102 1.81-1.219 3.63-2.433 5.45-3.645 17.21-10.162 7.69-4.671 4.41-2.861 2-1.491 4.05-2.925 6.09-4.355 3.93-2.663 7.96-5.188 12.04-7.62 6.34-4.387 13.27-7.524 20.23-10.664 3.73-1.262 18.12-9.448 3.64-1.196 6.27-3.933 12.7-7.516 19.42-10.588 3.57-1.72 7.24-3.152 10.95-4.522 7.07-2.181 13.92-4.957 20.73-7.828 5.9-2.13 11.82-4.24 17.78-6.22 4.75-1.6 9.45-3.34 14.19-4.95 4.32-1.48 8.6-3.07 12.89-4.65 2.28-0.72 4.53-1.52 6.78-2.32l-8.13 6.33c-2.24 0.78-4.48 1.54-6.73 2.3-4.26 1.53-8.51 3.08-12.78 4.55-4.7 1.67-9.42 3.26-14.13 4.89-5.88 1.96-11.75 3.96-17.56 6.133-6.94 2.872-13.95 5.575-21.05 8.036-3.73 1.408-7.41 2.928-11.01 4.667-11.91 5.447 2.02-1.007-1.95 0.549-6.9 3.998-13.66 8.087-21.02 11.168-2.6 1.154-10.19 5.076-7.76 3.574 1.63-1.014 10.66-6.263 4.99-2.902-4.08 2.334-8.06 4.849-11.93 7.515-2.01 1.368-3.97 2.79-5.93 4.219-17.56 10.643-7.15 4.35-4.43 2.888-1.81 1.264-3.63 2.508-5.5 3.697-2.46 1.658-4.87 3.369-7.31 5.06-2.7 2.315-5.3 4.739-7.49 7.57-1.71 2.368-3.44 4.717-5.16 7.082-1.55 1.938-3.23 3.768-4.66 5.807-2.12 2.406-4.27 4.792-6.81 6.776-2.1 1.67-4.3 3.228-6.25 5.082-2.11 1.909-4.09 4.021-6.56 5.4935-2.1 1.5829-4.26 3.0895-6.52 4.4499-2.44 1.5899-4.74 3.3591-7.17 4.9544-2.23 1.3703-4.29 2.9395-6.52 4.3216-1.77 1.186-3.58 2.3143-5.34 3.5166-3.46 2.0572-6.94 4.071-10.38 6.172-2.7 1.652 10.98-6.3208 8.21-4.775-3.26 1.828-6.44 3.808-9.72 5.621-2.47 1.365 11.85-7.1364 7.34-4.204-1.97 1.286-3.99 2.519-5.92 3.866-2.44 1.827-4.92 3.612-6.92 5.942-1.54 1.919-2.81 3.982-4.27 5.965-1.65 2.128-3.27 4.304-5.141 6.244-2.867 2.731-5.94 5.234-8.756 8.025-3.038 2.887-5.794 6.042-8.29 9.41-0.656 1.439-1.572 2.768-1.489 4.437 0.014 0.887 0.004 1.776 0.061 2.662l-9.527 4.855z" stroke="#000" stroke-linecap="round" stroke-width="2.8"/>
   <path id="path2859" stroke="#000" stroke-width="1px" fill="#893020" d="m61.429 158.79l26.428-3.57h30.003l12.14-3.57 5-7.86-2.14-7.14-3.57-11.43-7.86-20-5-12.144-10-9.285v-7.857l-5.72-11.429-5.71-7.143-13.571-7.857-18.572-2.857-10 1.428-7.143 10-5.714 15.715 3.571 12.857 1.429 9.286s-3.571 7.856-3.571 10.716 0.714 12.14 0.714 12.14l0.714 10.72s0 5 1.429 10.71c1.428 5.71 4.285 10.71 4.285 10.71l6.429 8.58 6.429-0.72z"/>
   <path id="path2861" stroke-linejoin="round" d="m39.286 61.291a8.2143 8.2143 0 1 1 -16.429 0 8.2143 8.2143 0 1 1 16.429 0z" transform="translate(9.2857 .71429)" stroke="#000" stroke-linecap="round" stroke-width="2.8"/>
   <path id="path2863" stroke-linejoin="round" d="m39.286 61.291a8.2143 8.2143 0 1 1 -16.429 0 8.2143 8.2143 0 1 1 16.429 0z" transform="translate(67.5 -.35714)" stroke="#000" stroke-linecap="round" stroke-width="2.8"/>
   <path id="path2873" fill="url(#linearGradient2991)" d="m119.21 220.71c11.81-4.74 23.61-9.48 35.41-14.22 3.49-1.4 3.99 73.5 9.4 86.58 7.21 17.45 5.16 37.97 10.98 56.02 6.93 21.52 10.07 45.4 13.14 67.81 2.72 19.82 1.78 50.46-4.91 68.34-6.03 16.08-40.81 17.78-52.94 14.56-14.83-3.93-20.34 16.63-36.925-46.93-5.543-21.24-9.556-41.48-16.209-62.13-7.206-22.36 3.727-53.56 1.214-77.28-2.099-19.82-9.673-36.49-12.36-56.09-2.558-18.66-5.676-38.05 11.861-41.71 9.546-1.99 20.684-1.21 27.589 2.88 5.84 3.47 6.31 3.34 13.75 2.17z"/>
   <path id="path2887" fill="url(#radialGradient2993)" d="m84.669 105.42c4.621 0.71 15.961-6.285 24.341-5.3 7.34 0.86 5.34 13.25 7.67 19.44 3.02 8.04 11.26 15.72-0.86 18.45-11.53 2.59-17.656 2.38-29.292 1.01-4.04-0.47-4.896 7.27-8.918 7.86-1.629 0.24-3.233 0.61-4.849 0.92-14.776 2.78-17.567-22.07-16.404-30.86 1.486-11.23 1.216-15.61 13.278-16.988 5.546-0.636 7.463 5.598 15.034 5.468z"/>
   <path id="path2897" opacity=".31455" transform="matrix(-.48481 .65318 -.34457 -.55515 200.95 1375)" fill="url(#radialGradient2995)" d="m-165.71-84.781a97.143 434.29 0 1 1 -194.29 0 97.143 434.29 0 1 1 194.29 0z"/>
   <path id="path2907" opacity=".43192" transform="matrix(-.010959 .81336 -.60426 -.24858 576.22 1107.7)" fill="url(#radialGradient2995)" d="m-165.71-84.781a97.143 434.29 0 1 1 -194.29 0 97.143 434.29 0 1 1 194.29 0z"/>
   <path id="path2911" opacity=".31925" transform="matrix(.34442 .73463 -.74593 .0020106 762.68 823.39)" fill="url(#radialGradient2995)" d="m-165.71-84.781a97.143 434.29 0 1 1 -194.29 0 97.143 434.29 0 1 1 194.29 0z"/>
   <path id="path2915" opacity=".30047" transform="matrix(.42012 .69412 -.74154 .080818 782.95 595.17)" fill="url(#radialGradient2995)" d="m-165.71-84.781a97.143 434.29 0 1 1 -194.29 0 97.143 434.29 0 1 1 194.29 0z"/>
   <path id="path2919" opacity=".34272" transform="matrix(.57632 .57110 -.69962 .25874 811.4 335.48)" fill="url(#radialGradient2995)" d="m-165.71-84.781a97.143 434.29 0 1 1 -194.29 0 97.143 434.29 0 1 1 194.29 0z"/>
   <path id="path2923" opacity=".34272" transform="matrix(.61764 -.52615 .19887 .71894 312.55 1233.6)" fill="url(#radialGradient2995)" d="m-165.71-84.781a97.143 434.29 0 1 1 -194.29 0 97.143 434.29 0 1 1 194.29 0z"/>
   <path id="path2927" opacity=".30047" transform="matrix(.72132 .37148 -.58951 .45705 -397.78 1209)" fill="url(#radialGradient2995)" d="m-165.71-84.781a97.143 434.29 0 1 1 -194.29 0 97.143 434.29 0 1 1 194.29 0z"/>
   <path id="path2931" opacity=".30047" transform="matrix(.52150 .62156 -.72040 .19347 -562.41 1034.2)" fill="url(#radialGradient2995)" d="m-165.71-84.781a97.143 434.29 0 1 1 -194.29 0 97.143 434.29 0 1 1 194.29 0z"/>
   <path id="path2935" opacity=".30047" transform="matrix(.42012 .69412 -.74154 .080818 -651.46 845.69)" fill="url(#radialGradient2995)" d="m-165.71-84.781a97.143 434.29 0 1 1 -194.29 0 97.143 434.29 0 1 1 194.29 0z"/>
   <path id="path2939" opacity=".30047" transform="matrix(.26695 .76619 -.74217 -.074806 -679.66 637.29)" fill="url(#radialGradient2995)" d="m-165.71-84.781a97.143 434.29 0 1 1 -194.29 0 97.143 434.29 0 1 1 194.29 0z"/>
   <path id="path2943" opacity=".30047" transform="matrix(-.22915 .77833 -.55979 -.493 -612.77 334.3)" fill="url(#radialGradient2995)" d="m-165.71-84.781a97.143 434.29 0 1 1 -194.29 0 97.143 434.29 0 1 1 194.29 0z"/>
  </g>
 </g>
 <metadata>
  <rdf:RDF>
   <cc:Work>
    <dc:format>image/svg+xml</dc:format>
    <dc:type rdf:resource="http://purl.org/dc/dcmitype/StillImage"/>
    <cc:license rdf:resource="http://creativecommons.org/licenses/publicdomain/"/>
    <dc:publisher>
     <cc:Agent rdf:about="http://openclipart.org/">
      <dc:title>Openclipart</dc:title>
     </cc:Agent>
    </dc:publisher>
   </cc:Work>
   <cc:License rdf:about="http://creativecommons.org/licenses/publicdomain/">
    <cc:permits rdf:resource="http://creativecommons.org/ns#Reproduction"/>
    <cc:permits rdf:resource="http://creativecommons.org/ns#Distribution"/>
    <cc:permits rdf:resource="http://creativecommons.org/ns#DerivativeWorks"/>
   </cc:License>
  </rdf:RDF>
 </metadata>
</svg>
